<svg width="24px" height="24px" viewBox="0 0 24 24" version="1.1" xmlns="http://www.w3.org/2000/svg" xmlns:xlink="http://www.w3.org/1999/xlink">
    <title>Cancel Icon</title>
    <defs>
        <path d="M12.0666667,10.6524531 L17.4262266,5.29289322 C17.8167508,4.90236893 18.4499158,4.90236893 18.8404401,5.29289322 C19.2309644,5.68341751 19.2309644,6.31658249 18.8404401,6.70710678 L13.4808802,12.0666667 L18.9636243,17.5494108 C19.3541486,17.939935 19.3541486,18.5731 18.9636243,18.9636243 C18.5731,19.3541486 17.939935,19.3541486 17.5494108,18.9636243 L12.0666667,13.4808802 L6.70710678,18.8404401 C6.31658249,19.2309644 5.68341751,19.2309644 5.29289322,18.8404401 C4.90236893,18.4499158 4.90236893,17.8167508 5.29289322,17.4262266 L10.6524531,12.0666667 L5.29289322,6.70710678 C4.90236893,6.31658249 4.90236893,5.68341751 5.29289322,5.29289322 C5.68341751,4.90236893 6.31658249,4.90236893 6.70710678,5.29289322 L12.0666667,10.6524531 Z" id="path-1"></path>
    </defs>
    <g id="Page-1" stroke="none" stroke-width="1" fill="none" fill-rule="evenodd">
        <g id="icon-cancel">
            <use id="style" fill="#0A0908" xlink:href="#path-1"></use>
        </g>
    </g>
</svg>